<?xml version="1.0" encoding="UTF-8" standalone="no"?>
<svg
   width="64pt"
   height="64pt"
   viewBox="0 0 22.577778 22.577778"
   version="1.1"
   id="svg831"
   inkscape:version="1.1.2 (1:1.1+202202050950+0a00cf5339)"
   sodipodi:docname="7 - Cashier Machine.svg"
   inkscape:export-filename="/media/taufikramadhan/Data/Tr Design Studio/Project Design/TR Creative Design/Icon Design/Project Hiring/Icon Icons/019 - Commerce And Shopping/5 - Send/7 - Cashier Machine.png"
   inkscape:export-xdpi="576"
   inkscape:export-ydpi="576"
   xmlns:inkscape="http://www.inkscape.org/namespaces/inkscape"
   xmlns:sodipodi="http://sodipodi.sourceforge.net/DTD/sodipodi-0.dtd"
   xmlns="http://www.w3.org/2000/svg"
   xmlns:svg="http://www.w3.org/2000/svg"
   xmlns:rdf="http://www.w3.org/1999/02/22-rdf-syntax-ns#"
   xmlns:cc="http://creativecommons.org/ns#"
   xmlns:dc="http://purl.org/dc/elements/1.1/">
  <defs
     id="defs825">
    <pattern
       id="EMFhbasepattern"
       patternUnits="userSpaceOnUse"
       width="6"
       height="6"
       x="0"
       y="0" />
    <pattern
       id="EMFhbasepattern-9"
       patternUnits="userSpaceOnUse"
       width="6"
       height="6"
       x="0"
       y="0" />
    <pattern
       id="EMFhbasepattern-0"
       patternUnits="userSpaceOnUse"
       width="6"
       height="6"
       x="0"
       y="0" />
    <pattern
       id="EMFhbasepattern-7"
       patternUnits="userSpaceOnUse"
       width="6"
       height="6"
       x="0"
       y="0" />
    <pattern
       id="EMFhbasepattern-2"
       patternUnits="userSpaceOnUse"
       width="6"
       height="6"
       x="0"
       y="0" />
    <pattern
       id="EMFhbasepattern-98"
       patternUnits="userSpaceOnUse"
       width="6"
       height="6"
       x="0"
       y="0" />
    <pattern
       id="EMFhbasepattern-6"
       patternUnits="userSpaceOnUse"
       width="6"
       height="6"
       x="0"
       y="0" />
    <pattern
       id="EMFhbasepattern-01"
       patternUnits="userSpaceOnUse"
       width="6"
       height="6"
       x="0"
       y="0" />
    <pattern
       id="EMFhbasepattern-07"
       patternUnits="userSpaceOnUse"
       width="6"
       height="6"
       x="0"
       y="0" />
    <pattern
       id="EMFhbasepattern-8"
       patternUnits="userSpaceOnUse"
       width="6"
       height="6"
       x="0"
       y="0" />
    <pattern
       id="EMFhbasepattern-4"
       patternUnits="userSpaceOnUse"
       width="6"
       height="6"
       x="0"
       y="0" />
    <pattern
       id="EMFhbasepattern-40"
       patternUnits="userSpaceOnUse"
       width="6"
       height="6"
       x="0"
       y="0" />
    <pattern
       id="EMFhbasepattern-08"
       patternUnits="userSpaceOnUse"
       width="6"
       height="6"
       x="0"
       y="0" />
    <pattern
       id="EMFhbasepattern-04"
       patternUnits="userSpaceOnUse"
       width="6"
       height="6"
       x="0"
       y="0" />
    <pattern
       id="EMFhbasepattern-014"
       patternUnits="userSpaceOnUse"
       width="6"
       height="6"
       x="0"
       y="0" />
    <pattern
       id="EMFhbasepattern-27"
       patternUnits="userSpaceOnUse"
       width="6"
       height="6"
       x="0"
       y="0" />
    <pattern
       id="EMFhbasepattern-09"
       patternUnits="userSpaceOnUse"
       width="6"
       height="6"
       x="0"
       y="0" />
    <pattern
       id="EMFhbasepattern-5"
       patternUnits="userSpaceOnUse"
       width="6"
       height="6"
       x="0"
       y="0" />
    <pattern
       id="EMFhbasepattern-018"
       patternUnits="userSpaceOnUse"
       width="6"
       height="6"
       x="0"
       y="0" />
  </defs>
  <sodipodi:namedview
     id="base"
     pagecolor="#ffffff"
     bordercolor="#666666"
     borderopacity="1.0"
     inkscape:pageopacity="0.0"
     inkscape:pageshadow="2"
     inkscape:zoom="4.4249417"
     inkscape:cx="26.32803"
     inkscape:cy="47.458252"
     inkscape:document-units="pt"
     inkscape:current-layer="layer1"
     showgrid="false"
     units="pt"
     inkscape:window-width="1366"
     inkscape:window-height="705"
     inkscape:window-x="0"
     inkscape:window-y="31"
     inkscape:window-maximized="1"
     inkscape:pagecheckerboard="true"
     inkscape:showpageshadow="false"
     inkscape:object-paths="true"
     inkscape:snap-intersection-paths="true"
     inkscape:snap-smooth-nodes="true"
     inkscape:snap-midpoints="true"
     showguides="true"
     inkscape:snap-bbox="true"
     inkscape:bbox-nodes="true"
     inkscape:snap-nodes="false"
     inkscape:snap-global="true"
     inkscape:document-rotation="0">
    <inkscape:grid
       type="xygrid"
       id="grid1378" />
    <sodipodi:guide
       position="0.97013831,21.607643"
       orientation="78.000048,0"
       id="guide1380"
       inkscape:locked="false" />
    <sodipodi:guide
       position="0.97013831,0.97013129"
       orientation="0,78.000005"
       id="guide1382"
       inkscape:locked="false" />
    <sodipodi:guide
       position="21.607639,0.97013129"
       orientation="-78.000048,0"
       id="guide1384"
       inkscape:locked="false" />
    <sodipodi:guide
       position="21.607639,21.607643"
       orientation="0,-78.000005"
       id="guide1386"
       inkscape:locked="false" />
  </sodipodi:namedview>
  <metadata
     id="metadata828">
    <rdf:RDF>
      <cc:Work
         rdf:about="">
        <dc:format>image/svg+xml</dc:format>
        <dc:type
           rdf:resource="http://purl.org/dc/dcmitype/StillImage" />
      </cc:Work>
    </rdf:RDF>
  </metadata>
  <g
     inkscape:label="Icon"
     inkscape:groupmode="layer"
     id="layer1"
     transform="translate(0,-274.42223)">
    <g
       id="g22564"
       style="display:inline;stroke-width:0.794834"
       transform="matrix(1.258125,0,0,1.258125,77.389408,-77.299778)">
      <g
         id="g822512"
         style="display:inline;stroke-width:0.794834">
        <path
           style="color:#000000;clip-rule:evenodd;fill:#3a4d5c;fill-rule:evenodd;stroke-width:0.794834;stroke-linecap:round;stroke-linejoin:round;stroke-miterlimit:1.5;-inkscape-stroke:none"
           d="m -60.476562,291.5293 a 0.26460996,0.26460996 0 0 0 -0.263672,0.26367 v 3.11914 a 0.26460996,0.26460996 0 0 0 0.263672,0.26367 h 5.386718 a 0.26460996,0.26460996 0 0 0 0.263672,-0.26367 v -3.11914 a 0.26460996,0.26460996 0 0 0 -0.263672,-0.26367 z"
           id="path1275183" />
        <path
           id="path466429"
           style="color:#000000;clip-rule:evenodd;fill:#143441;fill-opacity:1;fill-rule:evenodd;stroke-width:0.794834;stroke-linecap:round;stroke-linejoin:round;stroke-miterlimit:1.5;-inkscape-stroke:none"
           d="m -60.740479,291.79308 v 0.79478 h 4.592484 c 0.145313,5.8e-4 0.262968,0.11824 0.263549,0.26355 v 2.32441 h 0.794784 c 0.145313,-5.8e-4 0.262968,-0.11824 0.263549,-0.26355 v -3.11919 z"
           sodipodi:nodetypes="ccccccccc" />
        <path
           style="color:#000000;clip-rule:evenodd;fill:#3a4d5c;fill-rule:evenodd;stroke-width:0.794834;stroke-linecap:round;stroke-linejoin:round;stroke-miterlimit:1.5;-inkscape-stroke:none"
           d="m -55.089844,291.5293 a 0.26460996,0.26460996 0 0 0 -0.265625,0.26367 v 3.11914 a 0.26460996,0.26460996 0 0 0 0.265625,0.26367 h 10.488282 a 0.26460996,0.26460996 0 0 0 0.263671,-0.26367 v -3.11914 a 0.26460996,0.26460996 0 0 0 -0.263671,-0.26367 z"
           id="path1275177" />
        <path
           id="path459463"
           style="color:#000000;clip-rule:evenodd;fill:#143441;fill-opacity:1;fill-rule:evenodd;stroke-width:0.794834;stroke-linecap:round;stroke-linejoin:round;stroke-miterlimit:1.5;-inkscape-stroke:none"
           d="m -55.35528,291.79308 v 0.79478 h 10.224699 c 0.145314,5.8e-4 0.262971,0.11824 0.263552,0.26355 v 2.32441 h 0.265615 c 0.145314,-5.8e-4 0.26297,-0.11824 0.263551,-0.26355 v -3.11919 z"
           sodipodi:nodetypes="ccccccccc" />
        <path
           style="color:#000000;clip-rule:evenodd;fill:#a8c2e1;fill-rule:evenodd;stroke-width:0.794834;stroke-linecap:round;stroke-linejoin:round;stroke-miterlimit:1.5;-inkscape-stroke:none"
           d="m -60.740234,296.04492 c -5.64e-4,0.14617 0.117499,0.26511 0.263672,0.26563 h 15.875 c 0.146172,-5.2e-4 0.264235,-0.11946 0.263671,-0.26563 v -1.28204 h -16.402343 z"
           id="path1275171"
           sodipodi:nodetypes="ccccccc" />
        <path
           style="color:#000000;fill:#a8c2e1;stroke-width:0.794834;stroke-linecap:round;stroke-linejoin:round;stroke-miterlimit:1.5;-inkscape-stroke:none"
           d="m -53.105469,283.30859 a 0.26460996,0.26460996 0 0 0 -0.1875,0.0762 l -0.566406,0.56835 a 0.26460996,0.26460996 0 0 0 -0.07813,0.18555 v 0.56836 a 0.26460996,0.26460996 0 0 0 0.263672,0.26367 h 6.804687 a 0.26460996,0.26460996 0 0 0 0.263672,-0.26367 v -1.13476 a 0.26460996,0.26460996 0 0 0 -0.263672,-0.26368 z"
           id="path1275165" />
        <path
           id="path397608"
           style="color:#000000;fill:#6788cb;fill-opacity:1;stroke-width:0.794834;stroke-linecap:round;stroke-linejoin:round;stroke-miterlimit:1.5;-inkscape-stroke:none"
           d="m -53.105287,283.30884 c -0.07013,-5.3e-4 -0.1376,0.0268 -0.187587,0.076 l -0.451652,0.4532 h 4.758884 c 0.145314,5.8e-4 0.262971,0.11824 0.263552,0.26355 v 0.8692 h 0.794781 c 0.145314,-5.8e-4 0.262971,-0.11824 0.263552,-0.26355 v -1.13482 c -5.81e-4,-0.14531 -0.118238,-0.26297 -0.263552,-0.26355 z"
           sodipodi:nodetypes="ccccccccccc" />
        <path
           style="color:#000000;fill:#3a4d5c;stroke-width:0.794834;stroke-linecap:round;stroke-linejoin:round;stroke-miterlimit:1.5;-inkscape-stroke:none"
           d="m -48.003906,282.17383 a 0.26460996,0.26460996 0 0 0 -0.263672,0.26367 v 2.26953 a 0.26460996,0.26460996 0 0 0 0.263672,0.26367 h 1.134765 a 0.26460996,0.26460996 0 0 0 0.263672,-0.26367 v -2.26953 a 0.26460996,0.26460996 0 0 0 -0.263672,-0.26367 z"
           id="path1275159" />
        <path
           style="color:#000000;fill:#ececec;stroke-width:0.794834;stroke-linecap:round;stroke-linejoin:round;stroke-miterlimit:1.5;-inkscape-stroke:none"
           d="m -54.240234,284.44141 a 0.26460996,0.26460996 0 0 0 -0.263672,0.26562 v 3.40039 a 0.26460996,0.26460996 0 0 0 0.263672,0.26563 h 8.789062 a 0.26460996,0.26460996 0 0 0 0.263672,-0.26563 v -3.40039 a 0.26460996,0.26460996 0 0 0 -0.263672,-0.26562 z"
           id="path1275153" />
        <path
           id="path1275147"
           style="color:#000000;clip-rule:evenodd;fill:#a8c2e1;fill-rule:evenodd;stroke-width:3.0041;stroke-linecap:round;stroke-linejoin:round;stroke-miterlimit:1.5;-inkscape-stroke:none"
           d="m -229.57051,45.324266 c 7.11914,0 14.23828,0 21.35742,0 0.4658,3.8e-5 0.86995,-0.321502 0.97461,-0.775391 l 3.21094,-13.929687 c 0.14435,-0.626596 -0.3316,-1.224632 -0.97461,-1.22461 l -18.21074,-4.7e-5 c -0.41518,-0.0018 -0.78827,0.253187 -0.9375,0.640625 l -5.35352,13.929688 c -0.0407,0.113349 -0.0605,0.23311 -0.0586,0.353515 z"
           transform="matrix(0.26458334,0,0,0.26458334,0,280.06666)"
           sodipodi:nodetypes="cccccccccc" />
        <path
           id="path1275141"
           style="color:#000000;clip-rule:evenodd;fill:#a8c2e1;fill-rule:evenodd;stroke-width:3.0041;stroke-linecap:round;stroke-linejoin:round;stroke-miterlimit:1.5;-inkscape-stroke:none"
           d="m -167.57617,44.240229 c -0.004,-0.04798 -0.0109,-0.09563 -0.0215,-0.142578 l -3.21093,-13.929687 c -0.10544,-0.453113 -0.50939,-0.773686 -0.97461,-0.773438 l -33.21874,5e-6 c -0.46522,-2.48e-4 -0.86917,0.320325 -0.97461,0.773438 l -3.21094,13.929687 c -0.14583,0.627288 0.33059,1.226876 0.97461,1.226563 13.54557,0 27.09115,0 40.63672,0 z"
           transform="matrix(0.26458334,0,0,0.26458334,0,280.06666)"
           sodipodi:nodetypes="cccccccccc" />
        <path
           style="color:#000000;fill:#ececec;fill-opacity:1;stroke-width:0.794834;stroke-linecap:round;stroke-linejoin:round;stroke-miterlimit:1.5;-inkscape-stroke:none"
           d="m -59.201172,285.15039 c -0.691671,0 -1.255859,0.56419 -1.255859,1.25586 v 0.70898 a 0.26460996,0.26460996 0 0 0 0.263672,0.26563 h 1.984375 a 0.26460996,0.26460996 0 0 0 0.265625,-0.26563 v -0.70898 c 0,-0.69167 -0.566141,-1.25586 -1.257813,-1.25586 z"
           id="path1275114" />
        <path
           style="color:#000000;fill:#3a4d5c;stroke-width:0.794834;stroke-linecap:round;stroke-linejoin:round;stroke-miterlimit:1.5;-inkscape-stroke:none"
           d="m -53.105469,285.57617 a 0.26460996,0.26460996 0 0 0 -0.265625,0.26367 v 1.13477 a 0.26460996,0.26460996 0 0 0 0.265625,0.26367 h 2.833985 a 0.26460996,0.26460996 0 0 0 0.265625,-0.26367 v -1.13477 a 0.26460996,0.26460996 0 0 0 -0.265625,-0.26367 z"
           id="path1275108" />
        <path
           style="color:#000000;fill:#ececec;stroke-width:0.794834;stroke-linecap:round;stroke-linejoin:round;stroke-miterlimit:1.5;-inkscape-stroke:none"
           d="m -48.853516,280.75586 a 0.26460996,0.26460996 0 0 0 -0.265625,0.26562 v 1.41602 a 0.26460996,0.26460996 0 0 0 0.265625,0.26562 h 2.833985 a 0.26460996,0.26460996 0 0 0 0.265625,-0.26562 v -1.41602 a 0.26460996,0.26460996 0 0 0 -0.265625,-0.26562 z"
           id="path1275102" />
        <path
           id="path1275096"
           style="color:#000000;fill:#3a4d5c;stroke-width:3.0041;stroke-linecap:round;stroke-linejoin:round;stroke-miterlimit:1.5;-inkscape-stroke:none"
           d="m -201.7832,33.675781 c -0.47761,-7.62e-4 -0.8891,0.336287 -0.98242,0.804688 l -1.07032,5.359375 c -0.12263,0.6161 0.34644,1.191386 0.97461,1.195312 h 5.09571 l 1.05217,-7.359375 z m 6.57422,0 -1.29147,7.359375 h 4.35787 l 0.69869,-7.359375 z m 5.15564,0 -0.43246,7.359375 h 4.26883 l -0.48557,-7.359375 z m 4.64461,0 0.74271,7.359375 h 4.01177 l -0.93755,-7.359375 z m 5.38972,0 0.98385,7.359375 h 5.10352 c 0.63056,-2.48e-4 1.10355,-0.576876 0.98047,-1.195312 l -1.07031,-5.359375 c -0.0932,-0.467682 -0.5036,-0.804519 -0.98047,-0.804688 z"
           transform="matrix(0.26458334,0,0,0.26458334,0,280.06666)"
           sodipodi:nodetypes="ccccccccccccccccccccccccccccc" />
        <path
           style="color:#000000;fill:#ececec;stroke-width:0.794834;stroke-linecap:round;stroke-linejoin:round;stroke-miterlimit:1.5;-inkscape-stroke:none"
           d="m -59.201172,285.15039 a 0.26465,0.26465 0 0 0 0,0.5293 c 0.42273,0 0.728516,0.31504 0.728516,0.72656 v 2.83594 a 0.26460996,0.26460996 0 0 0 0.263672,0.26367 h 2.550781 a 0.26460996,0.26460996 0 0 0 0.265625,-0.26367 v -2.97657 c 0,-0.61267 -0.502552,-1.11523 -1.115234,-1.11523 z"
           id="path1275078" />
        <path
           style="color:#000000;fill:#cccccc;fill-opacity:1;stroke-width:0.794834;stroke-linecap:round;stroke-linejoin:round;stroke-miterlimit:1.5;-inkscape-stroke:none"
           d="m -59.201172,285.67969 c 0.438873,0 0.728516,0.18668 0.728516,0.72656 v 0.44531 h -1.455078 v -0.44531 c 0,-0.40767 0.318893,-0.72656 0.726562,-0.72656 z"
           id="path1275262"
           sodipodi:nodetypes="ssccss" />
      </g>
      <path
         id="rect165047"
         style="color:#000000;clip-rule:evenodd;fill:#000000;fill-rule:evenodd;stroke-width:3.0041;stroke-linecap:round;stroke-linejoin:round;stroke-miterlimit:1.5;-inkscape-stroke:none"
         d="m -224.00781,19.214844 c -2.3892,0 -4.49024,2.459348 -4.49024,4.746101 v 2.679687 c -0.002,0.552454 0.44363,1.001941 0.9961,1.003906 h 4.28906 c 0.55249,-0.0019 0.99828,-0.451415 0.99609,-1.003906 -0.002,-0.549581 -0.44649,-0.994204 -0.99609,-0.996094 h -3.28516 v -1.683593 c 0,-1.454518 0.95231,-2.734376 2.75,-2.734376 1.79769,0 2.75,1.210529 2.75,2.734376 v 5.433593 h -2.21484 c -0.41558,-0.0015 -0.78879,0.252392 -0.9375,0.640625 l -5.35352,13.929688 c -0.0339,0.12657 -0.0709,0.246123 -0.0665,0.369185 v 16.056641 c -0.002,0.552454 0.44558,1.001941 0.99804,1.003906 h 60 c 0.55247,-0.002 0.99823,-0.451452 0.9961,-1.003906 V 56.056641 44.382812 c 0.007,-0.09559 -7.1e-4,-0.191625 -0.0215,-0.285156 l -3.18945,-13.835937 V 17.539062 c 0.002,-0.552453 -0.44364,-1.00194 -0.99609,-1.003906 h -4.36328 V 9.9648438 h 2.21484 c 0.55532,0.00212 1.00603,-0.4485881 1.00391,-1.0039063 V 3.609375 c 0.002,-0.5553182 -0.44859,-1.0060255 -1.00391,-1.0039062 h -10.71083 c -0.55531,-0.00211 -1.00602,0.448592 -1.0039,1.0039062 v 5.3515625 c -0.002,0.5553143 0.44859,1.00602 1.0039,1.0039063 h 2.21485 v 6.5703122 h -19.42969 v -0.730468 l 1.55664,-1.550782 h 14.58789 c 0.55247,-0.0019 0.99826,-0.451452 0.99609,-1.003906 -0.002,-0.549619 -0.44648,-0.994204 -0.99609,-0.996094 h -15 c -0.26506,-0.0017 -0.52026,0.101157 -0.70899,0.28711 l -2.14062,2.148437 c -0.18697,0.185575 -0.29273,0.437626 -0.29492,0.701172 v 1.144531 h -1.14453 c -0.55245,0.002 -0.99821,0.451453 -0.9961,1.003906 v 11.855469 h -3.35937 v -5.964843 c 0,-2.315604 -1.8992,-4.214844 -4.21485,-4.214844 h -9.64062 z m 40.36133,-14.6093752 h 8.71875 v 3.359375 h -8.71875 z m 3.21875,5.359375 h 2.28125 v 6.5703122 h -2.28125 z m -23.57032,8.5703122 h 31.21094 v 10.859375 h -31.21094 z m 3.28516,2.289063 c -0.55226,-0.0021 -1.0017,0.443829 -1.00391,0.996093 v 4.289063 c 0.002,0.552265 0.45164,0.998202 1.00391,0.996094 h 10.71094 c 0.55226,0.0021 1.00169,-0.443833 1.0039,-0.996094 v -4.289063 c -0.002,-0.552261 -0.45164,-0.998195 -1.0039,-0.996093 z m -19.4375,0.390625 h 6.57812 c 1.23477,0 2.21485,0.980147 2.21485,2.214844 v 10.246093 h -7.64063 v -3.351562 h 4.35547 c 0.55247,-0.0019 0.99827,-0.451453 0.9961,-1.003907 -0.002,-0.549581 -0.4465,-0.994203 -0.9961,-0.996093 h -4.35547 v -2.289063 h 4.35547 c 0.5496,-0.0019 0.9942,-0.446512 0.9961,-0.996094 0.002,-0.552491 -0.44361,-1.002016 -0.9961,-1.003906 h -4.37695 c -0.0932,-1.059383 -0.50121,-2.030719 -1.13086,-2.820312 z m 20.43359,1.609375 h 8.71875 v 2.28125 h -8.71875 z m -22.81054,8.570312 h 1.52929 v 3.285157 c 0.002,0.54924 0.44686,0.993955 0.9961,0.996093 h 9.64062 c 0.55229,0.0022 1.00176,-0.443805 1.00391,-0.996093 v -3.285157 h 3.09765 l -2.75,11.929688 h -18.10937 z m 18.32226,0 h 31.62305 l 2.75391,11.929688 h -37.13086 z m 2.42188,2.28125 c -0.47761,-7.62e-4 -0.8891,0.336287 -0.98242,0.804688 l -1.07032,5.359375 c -0.12263,0.6161 0.34644,1.191386 0.97461,1.195312 h 28.92969 c 0.63056,-2.48e-4 1.10355,-0.576876 0.98047,-1.195312 l -1.07031,-5.359375 c -0.0932,-0.467682 -0.5036,-0.804519 -0.98047,-0.804688 z m 0.81054,2 h 3.69141 l -0.43945,3.359375 h -3.92383 z m 5.71094,0 h 3.32031 l -0.17968,3.359375 h -3.58008 z m 5.32422,0 h 3.07227 l 0.17968,3.359375 h -3.43554 z m 5.07031,0 h 3.32031 l 0.43946,3.359375 h -3.58008 z m 5.33985,0 h 3.70507 l 0.67188,3.359375 h -3.9375 z m -42.61524,3.359375 c -0.55534,-0.0022 -1.00607,0.448569 -1.0039,1.003906 0.002,0.552284 0.45162,0.998252 1.0039,0.996094 h 10.17969 c 0.54924,-0.0021 0.99395,-0.446858 0.99609,-0.996094 0.002,-0.552285 -0.44381,-1.00175 -0.99609,-1.003906 z m -5.43359,6.289063 h 18.35937 v 9.78125 h -18.35937 z m 20.35937,0 h 37.64649 v 9.78125 h -37.64649 z m -14.11914,3.357422 c -0.55305,-0.0032 -1.00371,0.44304 -1.00586,0.996093 v 0.539063 0.537109 c 0.002,0.553053 0.45281,0.999339 1.00586,0.996094 0.37044,-0.0021 0.70939,-0.208738 0.88086,-0.537109 h 3.05274 c 0.1718,0.328989 0.51167,0.53577 0.88281,0.537109 0.55229,0.0022 1.00176,-0.443806 1.00391,-0.996094 v -0.537109 -0.539063 c -0.002,-0.552288 -0.45162,-0.998257 -1.00391,-0.996093 -0.36805,0.0012 -0.70567,0.204566 -0.87891,0.529297 h -3.06054 c -0.17291,-0.324117 -0.50961,-0.527336 -0.87696,-0.529297 z m 27.85547,0 c -0.55229,-0.0022 -1.00176,0.443805 -1.00391,0.996093 v 0.539063 0.537109 c 0.002,0.552288 0.45162,0.998258 1.00391,0.996094 0.37114,-0.0013 0.71101,-0.20812 0.88281,-0.537109 h 7.33985 c 0.17147,0.328371 0.51042,0.535048 0.88086,0.537109 0.55228,0.0022 1.00175,-0.44381 1.0039,-0.996094 v -0.537109 -0.539063 c -0.002,-0.552284 -0.45162,-0.998251 -1.0039,-0.996093 -0.36735,0.002 -0.70405,0.20518 -0.87696,0.529297 h -7.34961 c -0.17291,-0.324114 -0.5096,-0.527332 -0.87695,-0.529297 z m -34.0957,8.423828 h 58.00586 v 2.289062 h -58.00586 z"
         transform="matrix(0.26458334,0,0,0.26458334,0,280.06666)"
         sodipodi:nodetypes="csccccccszsccccccccccccccccccccccccccccccccccccccccccsscccccccccccccccccccccccccccsscccccccccccccccccccccccccccccccccccccccccccccccccccccccccccccccccccccsccsccccccccccccccccccccccccccccccccccccccccccccccc" />
    </g>
  </g>
</svg>
